# xmcd
#
# Track frame offsets:
#	150
#	11483
#	13845
#	26620
#	31545
#	40565
#	42945
#	57180
#	59878
#	70235
#	72533
#	90775
#	102993
#	113460
#	116903
#	132600
#	135035
#	148470
#	149058
#	160170
#	164648
#	176440
#	178970
#	185640
#	187770
#
# Disc length: 2767 seconds
#
# Revision: 2
# Processed by: cddbd v1.5.2PL0 Copyright (c) Steve Scherf et al.
# Submitted via: EZCDAudioConverter 1.1.0.1
#
DISCID=680acd19
DTITLE=朱宗慶兒童打擊樂集4 - 故事ㄇ快樂的向前走
DYEAR=2000
DGENRE=Country
TTITLE0=快樂的向前走
TTITLE1=仔仔的小竹籃
TTITLE2=當我們同在一起
TTITLE3=玩具兵強強
TTITLE4=不倒翁
TTITLE5=出走
TTITLE6=三輪車
TTITLE7=尋寶
TTITLE8=潑水歌
TTITLE9=美麗的曇花
TTITLE10=愛的真諦
TTITLE11=Do Re Mi
TTITLE12=娃娃國
TTITLE13=螢火蟲
TTITLE14=泥娃娃
TTITLE15=河水姊姊
TTITLE16=河水
TTITLE17=小老鼠灰灰
TTITLE18=康城賽馬歌
TTITLE19=救難記
TTITLE20=高山青
TTITLE21=受傷的強強
TTITLE22=媽媽的眼睛
TTITLE23=回家-完結篇
TTITLE24=平安夜
EXTD=
EXTT0=
EXTT1=
EXTT2=
EXTT3=
EXTT4=
EXTT5=
EXTT6=
EXTT7=
EXTT8=
EXTT9=
EXTT10=
EXTT11=
EXTT12=
EXTT13=
EXTT14=
EXTT15=
EXTT16=
EXTT17=
EXTT18=
EXTT19=
EXTT20=
EXTT21=
EXTT22=
EXTT23=
EXTT24=
PLAYORDER=
